<?xml version="1.0" encoding="UTF-8" standalone="no"?>
<!-- Created with Inkscape (http://www.inkscape.org/) -->

<svg
   width="27.289062"
   height="24.597656"
   viewBox="-0.03 -0.4 7.2202311 6.5081296"
   version="1.1"
   id="svg260"
   xmlns="http://www.w3.org/2000/svg"
   xmlns:svg="http://www.w3.org/2000/svg">
  <defs
     id="defs257" />
  <g
     id="layer1"
     transform="translate(-0.63874837,-1.7249837)">
    <path
       id="path1884"
       style="fill:#ffffff;stroke:none;stroke-width:0.5;stroke-linecap:round;stroke-linejoin:miter;stroke-dasharray:none"
       d="M 5.4678833,1.3249837 C 4.5721374,1.3262813 3.1260584,1.7349034 3.2163411,2.5652181 2.7362224,2.0547329 1.3774902,2.839597 0.60874837,3.2793864 L 0.62011719,3.8896851 3.0458089,7.8331136 5.7849232,6.4426325 7.8289795,4.806425 7.8284627,4.394047 Z M 5.2622111,1.6086873 7.4427641,4.4368068 C 6.3560387,4.9898425 5.598512,5.5593684 5.6497843,6.0249552 L 3.471106,2.6825236 C 3.5006789,1.8664074 4.7217882,1.7034192 5.2622111,1.6086873 Z M 2.75177,2.6959595 c 0.1623631,-0.00153 0.3047378,0.042263 0.4113444,0.1524454 L 5.3242228,6.2037557 C 5.0713558,5.8463294 3.9187045,6.7076491 3.1796509,7.1303141 L 0.9270752,3.4721395 C 1.333224,3.2838912 2.1719021,2.7014363 2.75177,2.6959595 Z" />
    <path
       style="fill:none;fill-opacity:1;stroke:#ffffff;stroke-width:0.2;stroke-linecap:round;stroke-linejoin:miter;stroke-dasharray:none"
       d="M 1.6136397,3.7183872 C 2.3692133,3.1831656 2.8986546,3.1290701 3.063577,3.2155865"
       id="path9317" />
    <path
       style="fill:none;fill-opacity:1;stroke:#ffffff;stroke-width:0.2;stroke-linecap:round;stroke-linejoin:miter;stroke-dasharray:none"
       d="M 3.9171689,2.7368184 C 4.1733978,2.3334044 4.6158496,2.1394966 5.2150967,2.0586221"
       id="path9317-3" />
    <path
       style="fill:none;fill-opacity:1;stroke:#ffffff;stroke-width:0.2;stroke-linecap:round;stroke-linejoin:miter;stroke-dasharray:none"
       d="M 4.3088858,3.3325168 C 4.5651147,2.9291028 4.9607943,2.7585811 5.5600414,2.6777066"
       id="path9317-3-7" />
    <path
       style="fill:none;fill-opacity:1;stroke:#ffffff;stroke-width:0.2;stroke-linecap:round;stroke-linejoin:miter;stroke-dasharray:none"
       d="M 4.7064492,3.928862 C 4.920877,3.5059828 5.4203952,3.2757119 6.0043771,3.2038935"
       id="path9317-3-5" />
    <path
       style="fill:none;fill-opacity:1;stroke:#ffffff;stroke-width:0.2;stroke-linecap:round;stroke-linejoin:miter;stroke-dasharray:none"
       d="M 5.4080318,5.0280078 C 5.385221,4.6952352 6.0197135,4.1632854 6.6474944,4.0691785"
       id="path9317-3-0" />
    <path
       style="fill:none;fill-opacity:1;stroke:#ffffff;stroke-width:0.2;stroke-linecap:round;stroke-linejoin:miter;stroke-dasharray:none"
       d="M 2.3736874,4.9925862 C 3.1292611,4.4673458 3.6353164,4.3769062 3.8002387,4.4430134"
       id="path9317-6-9" />
    <path
       style="fill:none;fill-opacity:1;stroke:#ffffff;stroke-width:0.2;stroke-linecap:round;stroke-linejoin:miter;stroke-dasharray:none"
       d="M 2.7712508,5.6357035 C 3.5268244,5.0877455 3.9627214,5.0281511 4.1276438,5.1329029"
       id="path9317-6-7" />
  </g>
</svg>
