<?xml version="1.0" encoding="UTF-8" standalone="no"?>
<!-- Created with Inkscape (http://www.inkscape.org/) -->

<svg
   width="105.19514mm"
   height="105.19461mm"
   viewBox="0 0 105.19514 105.19461"
   version="1.1"
   id="svg5"
   xmlns="http://www.w3.org/2000/svg"
   xmlns:svg="http://www.w3.org/2000/svg">
  <defs
     id="defs2" />
  <g
     id="layer3"
     style="display:none"
     transform="translate(-52.597306,-86.259851)">
    <circle
       style="display:none;fill:#000000;stroke-width:0.528;stroke-linecap:round"
       id="path61"
       cx="105.1948"
       cy="138.85713"
       r="52.597401" />
  </g>
  <g
     id="g558"
     style="display:none"
     transform="translate(-52.597306,-86.259851)">
    <path
       id="circle556"
       style="display:inline;fill:#000000;stroke-width:0.528;stroke-linecap:round"
       d="m 105.19461,86.259851 a 52.597401,52.597401 0 0 0 -52.597304,52.597309 52.597401,52.597401 0 0 0 52.597304,52.5973 52.597401,52.597401 0 0 0 52.59783,-52.5973 52.597401,52.597401 0 0 0 -52.59783,-52.597309 z m -0.20464,20.696929 c 6.2125,0.0844 11.99059,4.70317 14.6911,12.36462 5.13808,0.0362 9.71025,0.17248 13.91439,0.41289 a 3.5,3.5 0 0 1 3.29334,3.69539 3.5,3.5 0 0 1 -3.69331,3.29488 c -1.66538,-0.0952 -3.39978,-0.17334 -5.20847,-0.23564 2.21391,22.63141 2.07333,32.62109 0.3297,38.41368 a 3.50035,3.50035 0 0 1 -3.50212,2.48615 c -21.80845,-0.93677 -27.529903,-0.007 -39.445651,0.25166 a 3.50035,3.50035 0 0 1 -3.564123,-3.2184 c -0.823939,-10.18869 -1.117411,-22.65518 -0.128675,-37.15588 -1.551902,0.0678 -3.0254,0.12744 -4.650879,0.20258 a 3.5,3.5 0 0 1 -3.658174,-3.33417 3.5,3.5 0 0 1 3.334163,-3.65817 c 4.854475,-0.22439 9.27771,-0.40462 13.513387,-0.56431 2.291424,-8.08468 8.298117,-13.04327 14.775322,-12.95528 z m -0.0935,7.00009 c -2.57859,-0.035 -5.418125,1.47193 -7.200595,5.69681 4.499345,-0.13866 8.726275,-0.24405 12.571845,-0.29611 0.6296,-0.009 1.23195,-0.0129 1.84588,-0.0191 -1.97594,-3.87493 -4.79224,-5.34862 -7.21713,-5.38158 z m 11.96671,12.35532 c -7.77012,-1e-4 -16.98546,0.22461 -28.150219,0.66042 -0.921768,13.01521 -0.703052,24.08327 -0.07235,33.54472 1.709133,-0.0591 3.385747,-0.12344 5.093229,-0.18448 l 0.707451,-23.57117 a 3.5,3.5 0 0 1 3.601847,-3.39463 3.5,3.5 0 0 1 3.394632,3.6034 l -0.69505,23.15931 c 2.80991,-0.0561 5.88472,-0.082 9.45162,-0.0501 l -1.1219,-24.04246 a 3.5,3.5 0 0 1 3.3321,-3.65817 3.5,3.5 0 0 1 3.65972,3.3321 l 1.1436,24.49514 c 1.5283,0.04 3.11664,0.0869 4.8178,0.14728 0.69854,-4.82159 0.80382,-14.69337 -1.08986,-34.01756 -1.32041,-0.0142 -2.66656,-0.0238 -4.07262,-0.0238 z" />
  </g>
  <g
     id="g6862"
     style="display:none"
     transform="translate(-52.597306,-86.259851)">
    <path
       id="circle6860"
       style="fill:#000000;stroke-width:0.528;stroke-linecap:round"
       d="m 105.19461,86.259851 a 52.597401,52.597401 0 0 0 -52.597304,52.597309 52.597401,52.597401 0 0 0 52.597304,52.5973 52.597401,52.597401 0 0 0 52.59783,-52.5973 52.597401,52.597401 0 0 0 -52.59783,-52.597309 z m 4.79196,18.148249 a 5,5 0 0 1 4.76146,5.22655 c -0.30482,6.53439 -0.93225,14.71428 -2.04225,23.22856 7.59282,-0.37079 13.62017,-0.45161 17.37879,-0.45114 2.81063,3.6e-4 4.3589,0.045 4.3589,0.045 a 5,5 0 0 1 4.85345,5.14077 5,5 0 0 1 -5.14283,4.85552 c 0,0 -9.01156,-0.2559 -22.9862,0.49919 -1.88806,10.6833 -4.62815,21.09235 -8.54108,28.69799 a 5,5 0 0 1 -6.732405,2.16008 5,5 0 0 1 -2.158008,-6.73447 c 2.78176,-5.40698 5.093754,-14.03959 6.878653,-23.41253 -6.403372,0.51691 -13.441496,1.23973 -20.869013,2.25258 a 5,5 0 0 1 -5.628597,-4.27933 5,5 0 0 1 4.278808,-5.62911 c 8.59067,-1.17146 16.681165,-1.96456 23.911202,-2.50269 1.30163,-8.89536 2.1396,-17.67026 2.4505,-24.33495 a 5,5 0 0 1 5.22862,-4.76198 z" />
  </g>
  <g
     id="g6866"
     style="display:inline"
     transform="translate(-52.597306,-86.259851)">
    <path
       id="circle6864"
       style="display:inline;fill:#000000;stroke-width:0.528;stroke-linecap:round"
       d="m 105.19461,86.259851 a 52.597401,52.597401 0 0 0 -52.597304,52.597309 52.597401,52.597401 0 0 0 52.597304,52.5973 52.597401,52.597401 0 0 0 52.59783,-52.5973 52.597401,52.597401 0 0 0 -52.59783,-52.597309 z M 86.368888,112.64274 a 5,5 0 0 1 3.631303,1.20871 c 5.957116,5.16128 11.536369,10.10977 16.674439,14.81977 4.24043,-4.64196 8.32086,-8.89654 12.46797,-13.45655 a 5,5 0 0 1 3.46284,-1.62884 5,5 0 0 1 3.60184,1.29501 5,5 0 0 1 0.33383,7.06262 c -4.29914,4.72718 -8.38539,8.9845 -12.56254,13.5537 6.46909,6.17797 11.99894,11.85638 16.34164,16.92454 a 5,5 0 0 1 -0.54312,7.05074 5,5 0 0 1 -7.05073,-0.54261 c -3.95687,-4.61788 -9.18289,-9.98921 -15.38614,-15.92512 -5.74267,6.74177 -11.919224,14.73754 -19.246372,25.8408 a 5,5 0 0 1 -6.927743,1.42007 5,5 0 0 1 -1.418001,-6.92775 c 7.675241,-11.63074 14.239979,-20.0859 20.291266,-27.16836 -5.085351,-4.66948 -10.642839,-9.60827 -16.588133,-14.75931 a 5,5 0 0 1 -0.503845,-7.05487 5,5 0 0 1 3.421496,-1.71255 z" />
  </g>
  <g
     id="g6870"
     style="display:none"
     transform="translate(-52.597306,-86.259851)">
    <path
       id="circle6868"
       style="display:inline;fill:#000000;stroke-width:0.528;stroke-linecap:round"
       d="m 105.19461,86.259851 a 52.597401,52.597401 0 0 0 -52.597304,52.597309 52.597401,52.597401 0 0 0 52.597304,52.5973 52.597401,52.597401 0 0 0 52.59783,-52.5973 52.597401,52.597401 0 0 0 -52.59783,-52.597309 z m 4.15892,47.868909 c 11.2027,0.008 20.84007,0.15245 20.84007,0.15245 a 5,5 0 0 1 4.9351,5.06274 5,5 0 0 1 -5.06222,4.9351 c 0,0 -39.808007,-0.4152 -50.085832,0.47852 a 5,5 0 0 1 -5.41414,-4.54856 5,5 0 0 1 4.54856,-5.41414 c 6.266605,-0.54492 19.035755,-0.67411 30.238462,-0.66611 z" />
  </g>
  <g
     id="layer5"
     style="display:none"
     transform="translate(-52.597306,-86.259851)">
    <path
       style="fill:none;fill-opacity:1;stroke:#ffffff;stroke-width:7;stroke-linecap:round;stroke-linejoin:round;stroke-dasharray:none;stroke-opacity:1"
       d="m 85.293606,125.70889 c -1.128786,15.09093 -0.844687,27.98584 0,38.43171 11.756168,-0.25531 17.736404,-1.19014 39.671444,-0.24794 1.44997,-4.81689 1.75676,-15.34967 -0.74384,-39.91939"
       id="path5264" />
    <path
       style="fill:none;fill-opacity:1;stroke:#ffffff;stroke-width:7;stroke-linecap:round;stroke-dasharray:none;stroke-opacity:1"
       d="m 76.863424,123.97327 c 26.824806,-1.23993 43.527536,-1.48748 56.531806,-0.74384"
       id="path5266" />
    <path
       style="fill:none;fill-opacity:1;stroke:#ffffff;stroke-width:7;stroke-linecap:round;stroke-dasharray:none;stroke-opacity:1"
       d="m 93.475842,121.24586 c 3.804464,-14.48105 19.006618,-14.45394 23.306978,0.49588"
       id="path5270" />
    <path
       style="fill:none;fill-opacity:1;stroke:#ffffff;stroke-width:7;stroke-linecap:round;stroke-linejoin:round;stroke-dasharray:none;stroke-opacity:1"
       d="M 97.938879,136.86649 97.19504,161.66114"
       id="path5272" />
    <path
       style="fill:none;fill-opacity:1;stroke:#ffffff;stroke-width:7;stroke-linecap:round;stroke-linejoin:round;stroke-dasharray:none;stroke-opacity:1"
       d="m 112.56772,135.8747 1.23973,26.53028"
       id="path5274" />
  </g>
  <g
     id="layer4"
     style="display:none"
     transform="translate(-52.597306,-86.259851)">
    <path
       style="fill:none;fill-opacity:1;stroke:#ffffff;stroke-width:10;stroke-linecap:round;stroke-dasharray:none;stroke-opacity:1"
       d="m 79.548296,139.7762 c 11.405541,-0.99178 50.581094,-0.49589 50.581094,-0.49589"
       id="path5233" />
  </g>
  <g
     id="layer1"
     style="display:none"
     transform="translate(-52.597306,-86.259851)">
    <path
       style="display:inline;fill:none;fill-opacity:1;stroke:#ffffff;stroke-width:10;stroke-linecap:round;stroke-dasharray:none;stroke-opacity:1"
       d="m 109.75324,109.40261 c -0.7845,16.81727 -4.25261,45.73529 -11.571424,59.96104"
       id="path1275" />
    <path
       style="color:#000000;fill:#ffffff;stroke-linecap:round;-inkscape-stroke:none"
       d="m 134.44336,132.45703 c 0,0 -24.76687,-0.71467 -56.046876,3.55078 a 5,5 0 0 0 -4.279297,5.62891 5,5 0 0 0 5.628907,4.2793 c 30.434216,-4.15012 54.408206,-3.4629 54.408206,-3.4629 a 5,5 0 0 0 5.14257,-4.85546 5,5 0 0 0 -4.85351,-5.14063 z"
       id="path2211" />
  </g>
  <g
     id="layer2"
     style="display:none"
     transform="translate(-52.597306,-86.259851)">
    <path
       style="fill:none;fill-opacity:1;stroke:#ffffff;stroke-width:10;stroke-linecap:round;stroke-dasharray:none;stroke-opacity:1"
       d="m 122.84243,118.57964 c -12.03738,13.23587 -22.920027,23.26415 -38.922074,47.51299"
       id="path5227" />
    <path
       style="fill:none;fill-opacity:1;stroke:#ffffff;stroke-width:10;stroke-linecap:round;stroke-dasharray:none;stroke-opacity:1"
       d="m 86.725551,117.6304 c 17.087559,14.80477 31.112359,27.90802 39.798709,38.04545"
       id="path5229" />
  </g>
</svg>
