<?xml version="1.0" encoding="UTF-8" standalone="no"?>
<!-- Created with Inkscape (http://www.inkscape.org/) -->

<svg
   width="105.19514mm"
   height="105.19461mm"
   viewBox="0 0 105.19514 105.19461"
   version="1.1"
   id="svg5"
   xmlns="http://www.w3.org/2000/svg"
   xmlns:svg="http://www.w3.org/2000/svg">
  <defs
     id="defs2" />
  <g
     id="layer3"
     style="display:none"
     transform="translate(-52.597306,-86.259851)">
    <path
       id="path61"
       style="display:inline;fill:#000000;stroke-width:0.528;stroke-linecap:round"
       d="m 105.19461,86.259851 c -29.048669,5.4e-5 -52.597253,23.548639 -52.597304,52.597309 5.6e-5,29.04867 23.548639,52.59725 52.597304,52.5973 29.04887,2.4e-4 52.59777,-23.54843 52.59783,-52.5973 -5e-5,-29.04887 -23.54896,-52.597546 -52.59783,-52.597309 z" />
  </g>
  <g
     id="g288"
     style="display:inline"
     transform="translate(-52.597306,-86.259851)">
    <path
       id="path286"
       style="display:inline;fill:#000000;stroke-width:0.528;stroke-linecap:round"
       d="m 105.19461,86.259851 c -29.048638,5.4e-5 -52.597253,23.548669 -52.597304,52.597309 5.6e-5,29.04864 23.54867,52.59725 52.597304,52.5973 29.04884,2.4e-4 52.59777,-23.54846 52.59783,-52.5973 -5e-5,-29.04884 -23.54899,-52.597546 -52.59783,-52.597309 z m 4.15892,47.868909 c 11.2027,0.008 20.84007,0.15245 20.84007,0.15245 a 5,5 0 0 1 4.9351,5.06274 5,5 0 0 1 -5.06222,4.9351 c 0,0 -39.808008,-0.4152 -50.085833,0.47852 a 5,5 0 0 1 -5.414139,-4.54856 5,5 0 0 1 4.548559,-5.41414 c 6.266606,-0.54492 19.035756,-0.67411 30.238463,-0.66611 z" />
  </g>
  <g
     id="g1963"
     style="display:none"
     transform="translate(-52.597306,-86.259851)">
    <path
       id="path1961"
       style="display:inline;fill:#000000;stroke-width:0.528;stroke-linecap:round"
       d="m 105.19461,86.259851 c -29.048483,5.4e-5 -52.597253,23.548819 -52.597304,52.597309 5.6e-5,29.04849 23.548825,52.59725 52.597304,52.5973 29.04869,2.4e-4 52.59777,-23.54861 52.59783,-52.5973 -5e-5,-29.04869 -23.54914,-52.597546 -52.59783,-52.597309 z m 3.14658,23.050789 c 8.20675,-0.002 15.48312,0.41269 21.29121,1.51774 a 2.25023,2.25023 0 0 1 1.83038,2.23035 c -0.097,10.87447 -0.11649,21.42656 0.24598,30.38678 a 2.250005,2.250005 0 0 1 -2.15646,2.33784 2.250005,2.250005 0 0 1 -2.33991,-2.15646 c -0.3442,-8.50891 -0.31429,-18.45677 -0.23409,-28.5936 -10.30308,-1.62746 -25.99496,-1.29223 -43.169979,-0.31833 -0.752209,15.86861 -0.589735,31.28573 0.222725,46.38838 7.382052,-0.19355 15.223809,-0.073 23.765474,0.51987 a 2.250005,2.250005 0 0 1 2.0898,2.40037 2.250005,2.250005 0 0 1 -2.40037,2.08773 c -9.244591,-0.64162 -17.718581,-0.77709 -25.548833,-0.49196 a 2.25023,2.25023 0 0 1 -2.328023,-2.11719 C 78.650615,146.9257 78.442227,129.95884 79.361047,112.42415 a 2.25023,2.25023 0 0 1 2.113049,-2.12701 c 9.523991,-0.56447 18.660344,-0.9843 26.867094,-0.9865 z m -3.44372,13.24932 c 0.56223,-0.001 1.12182,-3e-4 1.67845,0.003 4.4531,0.0231 8.73218,0.16976 12.92738,0.37104 a 2.250005,2.250005 0 0 1 2.14095,2.35541 2.250005,2.250005 0 0 1 -2.35541,2.14096 c -8.30758,-0.39863 -16.8535,-0.57936 -26.406138,-0.002 a 2.250005,2.250005 0 0 1 -2.38125,-2.10943 2.250005,2.250005 0 0 1 2.109432,-2.3828 c 4.27458,-0.25832 8.351076,-0.36782 12.286586,-0.37569 z m -12.323793,12.99456 c 13.611333,0.0172 18.066163,0.28368 27.033493,0.42426 a 2.250005,2.250005 0 0 1 2.21485,2.28513 2.250005,2.250005 0 0 1 -2.28513,2.21485 c -9.03258,-0.1416 -13.41488,-0.40666 -26.968897,-0.42374 a 2.250005,2.250005 0 0 1 -2.245858,-2.25206 2.250005,2.250005 0 0 1 2.251542,-2.24844 z m 8.249623,12.76563 c 1.41438,-0.003 2.87107,0.0133 4.35012,0.0413 4.73306,0.0896 9.69698,0.29682 14.24616,0.34365 a 2.250005,2.250005 0 0 1 2.22674,2.27324 2.250005,2.250005 0 0 1 -2.27376,2.22674 c -9.28942,-0.0956 -20.130929,-0.75827 -26.543084,-0.0155 a 2.250005,2.250005 0 0 1 -2.493905,-1.97663 2.250005,2.250005 0 0 1 1.976624,-2.4939 c 2.492368,-0.28871 5.399484,-0.39187 8.511105,-0.39894 z m 28.36003,3.87521 a 2.250005,2.250005 0 0 1 2.27945,2.21899 c 0.0294,2.19152 0.0519,4.31673 0.0605,6.33346 2.69708,-0.086 4.16058,-0.127 4.70927,-0.13229 0.15002,-0.001 0.24592,-9.3e-4 0.30231,0.002 0.45113,0.0198 -1.6327,0.14914 1.11156,0.15244 a 2.250005,2.250005 0 0 1 2.24586,2.25413 2.250005,2.250005 0 0 1 -2.25206,2.24586 c -4.50953,-0.005 2.58189,-0.29695 -6.12779,-0.0191 -0.0322,2.9832 -0.12149,5.56292 -0.30748,7.50962 a 2.250005,2.250005 0 0 1 -2.45308,2.0252 2.250005,2.250005 0 0 1 -2.02778,-2.45308 c 0.15929,-1.6673 0.24333,-4.07476 0.2775,-6.9324 -2.12945,0.0704 -3.28696,0.10661 -6.63887,0.21963 a 2.250005,2.250005 0 0 1 -2.32389,-2.17196 2.250005,2.250005 0 0 1 2.17196,-2.32441 c 3.24011,-0.10925 4.7024,-0.15631 6.80785,-0.22582 -0.006,-2.03856 -0.026,-4.2003 -0.0558,-6.42235 a 2.250005,2.250005 0 0 1 2.22054,-2.27945 z" />
  </g>
  <g
     id="g1066"
     style="display:none"
     transform="translate(-52.597306,-86.259851)">
    <path
       id="path1064"
       style="display:inline;fill:#000000;stroke-width:0.528;stroke-linecap:round"
       d="m 105.19461,86.259851 c -29.04839,5.4e-5 -52.597253,23.548909 -52.597304,52.597309 5.6e-5,29.0484 23.548918,52.59725 52.597304,52.5973 29.0486,2.4e-4 52.59777,-23.5487 52.59783,-52.5973 -5e-5,-29.0486 -23.54923,-52.597546 -52.59783,-52.597309 z m -0.50333,23.898279 c 8.07373,-0.0223 16.33329,0.1241 25.0176,0.68162 a 2.250225,2.250225 0 0 1 2.1053,2.26756 c -0.12363,11.97655 -0.17755,20.1093 -0.17415,24.95351 0.002,2.32241 0.018,3.8057 0.0434,4.63848 a 2.25,2.25 0 0 1 0.12093,0.93948 c -0.0174,0.1747 -0.0181,0.27523 -0.0879,0.57412 -0.0174,0.0747 -0.0354,0.16359 -0.0997,0.33022 -0.0321,0.0833 -0.0755,0.18639 -0.16588,0.34003 -0.0452,0.0768 -0.10307,0.16598 -0.18965,0.27336 -0.0866,0.10739 -0.37601,0.37049 -0.37672,0.37104 -7.2e-4,5.5e-4 -0.73775,0.37651 -0.73846,0.37672 -7.1e-4,2.1e-4 -1.05763,0.0549 -1.05833,0.0548 -7.1e-4,-1.3e-4 -0.85507,-0.35299 -0.85576,-0.35347 -7e-4,-4.7e-4 -0.35041,-0.28829 -0.45321,-0.41031 -0.41119,-0.48808 -0.39851,-0.67502 -0.44131,-0.81649 -0.1712,-0.56587 -0.10627,-0.55424 -0.11886,-0.72812 -0.0126,-0.17387 -0.0215,-0.36616 -0.0295,-0.59996 -0.0319,-0.9352 -0.0474,-2.54745 -0.0491,-4.98833 -0.003,-4.44958 0.0569,-12.4823 0.15865,-22.78879 -15.45584,-0.87626 -29.750609,-0.54654 -44.228825,-0.31832 -0.20315,36.67137 -0.04334,41.98663 0.127124,46.63643 5.734992,-0.28958 11.330157,-0.55639 15.607316,-0.60513 2.455735,-0.028 4.558305,-6.6e-4 6.236315,0.11523 1.67792,0.1159 2.71895,0.0311 4.14445,0.91416 a 2.25,2.25 0 0 1 0.72657,3.09749 2.25,2.25 0 0 1 -3.09749,0.72863 c 0.50184,0.3109 -0.61892,-0.14892 -2.08411,-0.25011 -1.46519,-0.10117 -3.48574,-0.13265 -5.875092,-0.10542 -4.778677,0.0545 -11.051823,0.33852 -17.737936,0.68936 a 2.250225,2.250225 0 0 1 -2.36523,-2.17402 c -0.187135,-5.78266 -0.438775,-6.73971 -0.177767,-51.28111 a 2.250225,2.250225 0 0 1 2.218469,-2.23656 c 7.937035,-0.11315 15.825171,-0.30375 23.898796,-0.32608 z m -10.574544,12.94598 c 0.936571,-0.002 1.884357,0.005 2.845821,0.0248 a 2.250005,2.250005 0 0 1 2.202966,2.29495 2.250005,2.250005 0 0 1 -2.29495,2.20503 c -2.956695,-0.0604 -5.804573,-9e-5 -8.634615,0.1018 a 2.250005,2.250005 0 0 1 -2.330091,-2.16834 2.250005,2.250005 0 0 1 2.167827,-2.33009 c 1.976358,-0.0712 3.982582,-0.12306 6.043042,-0.12816 z m 10.070184,0.12041 c 5.75092,0.28391 10.97926,0.052 17.06098,0.0491 a 2.250005,2.250005 0 0 1 2.24999,2.24999 2.250005,2.250005 0 0 1 -2.24844,2.25 c -5.96551,0.003 -11.28148,0.24158 -17.28474,-0.0548 a 2.250005,2.250005 0 0 1 -2.13682,-2.35748 2.250005,2.250005 0 0 1 2.35903,-2.13682 z m -7.312213,10.67377 a 2.250005,2.250005 0 0 1 2.318204,2.18178 2.250005,2.250005 0 0 1 -2.181779,2.31665 c -3.041906,0.0923 -6.088659,0.17585 -8.888346,0.10335 a 2.250005,2.250005 0 0 1 -2.191597,-2.30683 2.250005,2.250005 0 0 1 2.308903,-2.19108 c 2.624151,0.0679 5.60322,-0.0119 8.634615,-0.10387 z m 14.695223,0.003 c 2.25619,-0.005 5.20408,0.0263 9.88467,0.14418 a 2.250005,2.250005 0 0 1 2.19367,2.30477 2.250005,2.250005 0 0 1 -2.30684,2.19314 c -10.63595,-0.26787 -12.10112,-0.0847 -17.22479,-0.0506 a 2.250005,2.250005 0 0 1 -2.26549,-2.23449 2.250005,2.250005 0 0 1 2.23655,-2.26549 c 2.82445,-0.0188 4.58146,-0.0851 7.48223,-0.0915 z m 16.24811,8.37468 c -0.0213,0.0225 -0.0451,0.0399 -0.0584,0.0563 -0.0851,0.1056 -0.14227,0.19333 -0.18603,0.26768 -0.0875,0.1487 -0.12687,0.24682 -0.15606,0.32247 -0.0503,0.13025 -0.0594,0.18306 -0.0703,0.23047 a 2.25,2.25 0 0 1 0.47077,-0.87695 z m -30.423985,2.59571 a 2.250005,2.250005 0 0 1 2.29495,2.20297 2.250005,2.250005 0 0 1 -2.202966,2.29495 c -1.683568,0.034 -5.827996,0.13136 -8.783443,0.16588 a 2.250005,2.250005 0 0 1 -2.275314,-2.22467 2.250005,2.250005 0 0 1 2.222604,-2.27532 c 2.906419,-0.0339 7.038206,-0.12935 8.744169,-0.16381 z m 7.154605,0.0935 c 7.13559,0.0378 11.71415,0.0754 16.86718,0.11318 a 2.250005,2.250005 0 0 1 2.23243,2.26601 2.250005,2.250005 0 0 1 -2.26602,2.23449 c -5.1555,-0.0378 -9.72902,-0.0775 -16.85891,-0.11524 a 2.250005,2.250005 0 0 1 -2.23656,-2.26188 2.250005,2.250005 0 0 1 2.26188,-2.23656 z m 24.62072,7.07244 a 2.250005,2.250005 0 0 1 2.29495,2.20297 c 0.0598,3.00472 0.0957,5.29374 0.11627,7.1422 2.58333,0.008 4.64449,-0.0273 5.90713,-0.20671 a 2.250005,2.250005 0 0 1 0.3204,-0.0222 2.250005,2.250005 0 0 1 2.22467,1.9327 2.250005,2.250005 0 0 1 -1.91203,2.54455 c -1.72777,0.24548 -3.93923,0.29842 -6.52467,0.2899 -0.0427,4.00127 -0.28338,2.13585 -0.30747,6.43682 a 2.250005,2.250005 0 0 1 -2.26188,2.23655 2.250005,2.250005 0 0 1 -2.23811,-2.26187 c 0.0251,-4.48249 0.26536,-2.51484 0.30696,-6.46007 -2.21869,-0.0321 -4.56249,-0.0621 -7.15822,-0.0439 a 2.250005,2.250005 0 0 1 -2.26601,-2.23449 2.250005,2.250005 0 0 1 2.23449,-2.26549 c 2.59485,-0.0182 4.95404,2e-4 7.1732,0.0212 -0.0207,-1.81782 -0.0559,-4.06664 -0.11472,-7.01921 a 2.250005,2.250005 0 0 1 2.20504,-2.29288 z" />
  </g>
  <g
     id="g429"
     style="display:none"
     transform="translate(-52.597306,-86.259851)">
    <path
       id="path427"
       style="display:inline;fill:#000000;stroke-width:0.528;stroke-linecap:round"
       d="m 105.19461,86.259851 c -29.048669,5.4e-5 -52.597253,23.548639 -52.597304,52.597309 5.6e-5,29.04867 23.548639,52.59725 52.597304,52.5973 29.04887,2.4e-4 52.59777,-23.54843 52.59783,-52.5973 -5e-5,-29.04887 -23.54896,-52.597546 -52.59783,-52.597309 z" />
    <path
       id="path507"
       style="display:inline;fill:#ffffff;fill-opacity:1;stroke-width:0.4576;stroke-linecap:round"
       d="m 105.19465,93.272838 c -25.175511,4.7e-5 -45.584278,20.408812 -45.584322,45.584322 4.8e-5,25.17551 20.408814,45.58427 45.584322,45.58431 25.17568,2.1e-4 45.58472,-20.40863 45.58477,-45.58431 -5e-5,-25.17568 -20.40909,-45.584528 -45.58477,-45.584322 z" />
  </g>
  <g
     id="g392"
     style="display:none"
     transform="translate(-52.597306,-86.259851)">
    <path
       id="path390"
       style="display:inline;fill:#000000;stroke-width:0.528;stroke-linecap:round"
       d="m 105.19461,86.259851 a 52.597401,52.597401 0 0 0 -52.597304,52.597309 52.597401,52.597401 0 0 0 52.597304,52.5973 52.597401,52.597401 0 0 0 52.59783,-52.5973 52.597401,52.597401 0 0 0 -52.59783,-52.597309 z m 2.00246,18.673799 h 5.2e-4 a 5,5 0 0 1 4.76147,5.22862 c -0.29852,6.40001 -0.39578,14.7285 -0.39223,23.37118 11.22229,-0.51419 16.83924,-0.71848 22.51542,-0.81442 a 5,5 0 0 1 5.08393,4.91391 5,5 0 0 1 -4.91391,5.08393 c -5.64143,0.0953 -11.23388,0.3002 -22.64203,0.82476 0.0805,10.24059 0.25127,20.06589 0.35295,26.79836 a 5,5 0 0 1 -4.92425,5.07411 5,5 0 0 1 -5.0741,-4.92373 c -0.10025,-6.64001 -0.27426,-16.30675 -0.35864,-26.48314 -6.386885,0.30547 -14.142023,0.681 -24.002668,1.1591 a 5,5 0 0 1 -5.236373,-4.75216 5,5 0 0 1 4.752164,-5.23637 c 10.028971,-0.48627 17.977712,-0.87209 24.439857,-1.18081 -0.007,-8.86591 0.093,-17.50961 0.40979,-24.30136 a 5,5 0 0 1 5.2281,-4.76198 z" />
  </g>
  <g
     id="g558"
     style="display:none"
     transform="translate(-52.597306,-86.259851)">
    <path
       id="circle556"
       style="display:inline;fill:#000000;stroke-width:0.528;stroke-linecap:round"
       d="m 105.19461,86.259851 a 52.597401,52.597401 0 0 0 -52.597304,52.597309 52.597401,52.597401 0 0 0 52.597304,52.5973 52.597401,52.597401 0 0 0 52.59783,-52.5973 52.597401,52.597401 0 0 0 -52.59783,-52.597309 z m -0.20464,20.696929 c 6.2125,0.0844 11.99059,4.70317 14.6911,12.36462 5.13808,0.0362 9.71025,0.17248 13.91439,0.41289 a 3.5,3.5 0 0 1 3.29334,3.69539 3.5,3.5 0 0 1 -3.69331,3.29488 c -1.66538,-0.0952 -3.39978,-0.17334 -5.20847,-0.23564 2.21391,22.63141 2.07333,32.62109 0.3297,38.41368 a 3.50035,3.50035 0 0 1 -3.50212,2.48615 c -21.80845,-0.93677 -27.529903,-0.007 -39.445651,0.25166 a 3.50035,3.50035 0 0 1 -3.564123,-3.2184 c -0.823939,-10.18869 -1.117411,-22.65518 -0.128675,-37.15588 -1.551902,0.0678 -3.0254,0.12744 -4.650879,0.20258 a 3.5,3.5 0 0 1 -3.658174,-3.33417 3.5,3.5 0 0 1 3.334163,-3.65817 c 4.854475,-0.22439 9.27771,-0.40462 13.513387,-0.56431 2.291424,-8.08468 8.298117,-13.04327 14.775322,-12.95528 z m -0.0935,7.00009 c -2.57859,-0.035 -5.418125,1.47193 -7.200595,5.69681 4.499345,-0.13866 8.726275,-0.24405 12.571845,-0.29611 0.6296,-0.009 1.23195,-0.0129 1.84588,-0.0191 -1.97594,-3.87493 -4.79224,-5.34862 -7.21713,-5.38158 z m 11.96671,12.35532 c -7.77012,-1e-4 -16.98546,0.22461 -28.150219,0.66042 -0.921768,13.01521 -0.703052,24.08327 -0.07235,33.54472 1.709133,-0.0591 3.385747,-0.12344 5.093229,-0.18448 l 0.707451,-23.57117 a 3.5,3.5 0 0 1 3.601847,-3.39463 3.5,3.5 0 0 1 3.394632,3.6034 l -0.69505,23.15931 c 2.80991,-0.0561 5.88472,-0.082 9.45162,-0.0501 l -1.1219,-24.04246 a 3.5,3.5 0 0 1 3.3321,-3.65817 3.5,3.5 0 0 1 3.65972,3.3321 l 1.1436,24.49514 c 1.5283,0.04 3.11664,0.0869 4.8178,0.14728 0.69854,-4.82159 0.80382,-14.69337 -1.08986,-34.01756 -1.32041,-0.0142 -2.66656,-0.0238 -4.07262,-0.0238 z" />
  </g>
  <g
     id="g6862"
     style="display:none"
     transform="translate(-52.597306,-86.259851)">
    <path
       id="circle6860"
       style="fill:#000000;stroke-width:0.528;stroke-linecap:round"
       d="m 105.19461,86.259851 a 52.597401,52.597401 0 0 0 -52.597304,52.597309 52.597401,52.597401 0 0 0 52.597304,52.5973 52.597401,52.597401 0 0 0 52.59783,-52.5973 52.597401,52.597401 0 0 0 -52.59783,-52.597309 z m 4.79196,18.148249 a 5,5 0 0 1 4.76146,5.22655 c -0.30482,6.53439 -0.93225,14.71428 -2.04225,23.22856 7.59282,-0.37079 13.62017,-0.45161 17.37879,-0.45114 2.81063,3.6e-4 4.3589,0.045 4.3589,0.045 a 5,5 0 0 1 4.85345,5.14077 5,5 0 0 1 -5.14283,4.85552 c 0,0 -9.01156,-0.2559 -22.9862,0.49919 -1.88806,10.6833 -4.62815,21.09235 -8.54108,28.69799 a 5,5 0 0 1 -6.732405,2.16008 5,5 0 0 1 -2.158008,-6.73447 c 2.78176,-5.40698 5.093754,-14.03959 6.878653,-23.41253 -6.403372,0.51691 -13.441496,1.23973 -20.869013,2.25258 a 5,5 0 0 1 -5.628597,-4.27933 5,5 0 0 1 4.278808,-5.62911 c 8.59067,-1.17146 16.681165,-1.96456 23.911202,-2.50269 1.30163,-8.89536 2.1396,-17.67026 2.4505,-24.33495 a 5,5 0 0 1 5.22862,-4.76198 z" />
  </g>
  <g
     id="g6866"
     style="display:none"
     transform="translate(-52.597306,-86.259851)">
    <path
       id="circle6864"
       style="display:inline;fill:#000000;stroke-width:0.528;stroke-linecap:round"
       d="m 105.19461,86.259851 a 52.597401,52.597401 0 0 0 -52.597304,52.597309 52.597401,52.597401 0 0 0 52.597304,52.5973 52.597401,52.597401 0 0 0 52.59783,-52.5973 52.597401,52.597401 0 0 0 -52.59783,-52.597309 z M 86.368888,112.64274 a 5,5 0 0 1 3.631303,1.20871 c 5.957116,5.16128 11.536369,10.10977 16.674439,14.81977 4.24043,-4.64196 8.32086,-8.89654 12.46797,-13.45655 a 5,5 0 0 1 3.46284,-1.62884 5,5 0 0 1 3.60184,1.29501 5,5 0 0 1 0.33383,7.06262 c -4.29914,4.72718 -8.38539,8.9845 -12.56254,13.5537 6.46909,6.17797 11.99894,11.85638 16.34164,16.92454 a 5,5 0 0 1 -0.54312,7.05074 5,5 0 0 1 -7.05073,-0.54261 c -3.95687,-4.61788 -9.18289,-9.98921 -15.38614,-15.92512 -5.74267,6.74177 -11.919224,14.73754 -19.246372,25.8408 a 5,5 0 0 1 -6.927743,1.42007 5,5 0 0 1 -1.418001,-6.92775 c 7.675241,-11.63074 14.239979,-20.0859 20.291266,-27.16836 -5.085351,-4.66948 -10.642839,-9.60827 -16.588133,-14.75931 a 5,5 0 0 1 -0.503845,-7.05487 5,5 0 0 1 3.421496,-1.71255 z" />
  </g>
  <g
     id="g6870"
     style="display:none"
     transform="translate(-52.597306,-86.259851)">
    <path
       id="circle6868"
       style="display:inline;fill:#000000;stroke-width:0.528;stroke-linecap:round"
       d="m 105.19461,86.259851 a 52.597401,52.597401 0 0 0 -52.597304,52.597309 52.597401,52.597401 0 0 0 52.597304,52.5973 52.597401,52.597401 0 0 0 52.59783,-52.5973 52.597401,52.597401 0 0 0 -52.59783,-52.597309 z m 4.15892,47.868909 c 11.2027,0.008 20.84007,0.15245 20.84007,0.15245 a 5,5 0 0 1 4.9351,5.06274 5,5 0 0 1 -5.06222,4.9351 c 0,0 -39.808007,-0.4152 -50.085832,0.47852 a 5,5 0 0 1 -5.41414,-4.54856 5,5 0 0 1 4.54856,-5.41414 c 6.266605,-0.54492 19.035755,-0.67411 30.238462,-0.66611 z" />
  </g>
  <g
     id="layer5"
     style="display:none"
     transform="translate(-52.597306,-86.259851)">
    <path
       style="fill:none;fill-opacity:1;stroke:#ffffff;stroke-width:7;stroke-linecap:round;stroke-linejoin:round;stroke-dasharray:none;stroke-opacity:1"
       d="m 85.293606,125.70889 c -1.128786,15.09093 -0.844687,27.98584 0,38.43171 11.756168,-0.25531 17.736404,-1.19014 39.671444,-0.24794 1.44997,-4.81689 1.75676,-15.34967 -0.74384,-39.91939"
       id="path5264" />
    <path
       style="fill:none;fill-opacity:1;stroke:#ffffff;stroke-width:7;stroke-linecap:round;stroke-dasharray:none;stroke-opacity:1"
       d="m 76.863424,123.97327 c 26.824806,-1.23993 43.527536,-1.48748 56.531806,-0.74384"
       id="path5266" />
    <path
       style="fill:none;fill-opacity:1;stroke:#ffffff;stroke-width:7;stroke-linecap:round;stroke-dasharray:none;stroke-opacity:1"
       d="m 93.475842,121.24586 c 3.804464,-14.48105 19.006618,-14.45394 23.306978,0.49588"
       id="path5270" />
    <path
       style="fill:none;fill-opacity:1;stroke:#ffffff;stroke-width:7;stroke-linecap:round;stroke-linejoin:round;stroke-dasharray:none;stroke-opacity:1"
       d="M 97.938879,136.86649 97.19504,161.66114"
       id="path5272" />
    <path
       style="fill:none;fill-opacity:1;stroke:#ffffff;stroke-width:7;stroke-linecap:round;stroke-linejoin:round;stroke-dasharray:none;stroke-opacity:1"
       d="m 112.56772,135.8747 1.23973,26.53028"
       id="path5274" />
  </g>
  <g
     id="layer4"
     style="display:none"
     transform="translate(-52.597306,-86.259851)">
    <path
       style="fill:none;fill-opacity:1;stroke:#ffffff;stroke-width:10;stroke-linecap:round;stroke-dasharray:none;stroke-opacity:1"
       d="m 79.548296,139.7762 c 11.405541,-0.99178 50.581094,-0.49589 50.581094,-0.49589"
       id="path5233" />
  </g>
  <g
     id="layer1"
     style="display:none"
     transform="translate(-52.597306,-86.259851)">
    <path
       style="display:inline;fill:none;fill-opacity:1;stroke:#ffffff;stroke-width:10;stroke-linecap:round;stroke-dasharray:none;stroke-opacity:1"
       d="m 109.75324,109.40261 c -0.7845,16.81727 -4.25261,45.73529 -11.571424,59.96104"
       id="path1275" />
    <path
       style="color:#000000;fill:#ffffff;stroke-linecap:round;-inkscape-stroke:none"
       d="m 134.44336,132.45703 c 0,0 -24.76687,-0.71467 -56.046876,3.55078 a 5,5 0 0 0 -4.279297,5.62891 5,5 0 0 0 5.628907,4.2793 c 30.434216,-4.15012 54.408206,-3.4629 54.408206,-3.4629 a 5,5 0 0 0 5.14257,-4.85546 5,5 0 0 0 -4.85351,-5.14063 z"
       id="path2211" />
  </g>
  <g
     id="g12951"
     style="display:none"
     transform="translate(-52.597306,-86.259851)">
    <path
       style="display:inline;fill:none;fill-opacity:1;stroke:#ffffff;stroke-width:10;stroke-linecap:round;stroke-dasharray:none;stroke-opacity:1"
       d="m 106.94805,109.92858 c -0.7845,16.81727 -0.22015,45.91062 0,60.48702"
       id="path12947" />
    <path
       style="display:inline;fill:none;fill-opacity:1;stroke:#ffffff;stroke-width:10;stroke-linecap:round;stroke-dasharray:none;stroke-opacity:1"
       d="m 134.15131,137.71764 c -9.55073,0.16142 -16.52534,0.50153 -56.805193,2.45455"
       id="path12947-2" />
  </g>
  <g
     id="layer6"
     style="display:none">
    <path
       style="fill:none;fill-opacity:1;stroke:#ffffff;stroke-width:4.5;stroke-linecap:round;stroke-linejoin:round;stroke-dasharray:none;stroke-opacity:1"
       d="m 76.967528,57.155842 c -0.219872,2.202471 -0.247324,-6.370604 10e-7,-30.331167 -17.236411,-1.106541 -32.837103,-0.577363 -48.740259,-0.350649 -0.260959,44.533401 -0.01365,45.355527 0.175325,51.194802 13.391912,-0.702706 25.152678,-1.144429 27,-1e-6"
       id="path1124" />
    <path
       style="fill:none;fill-opacity:1;stroke:#ffffff;stroke-width:4.50001;stroke-linecap:round;stroke-linejoin:round;stroke-dasharray:none;stroke-opacity:1"
       d="m 76.616878,68.02597 c 0.378883,19.02231 -0.138604,11.504153 -0.175323,18.05844"
       id="path1450" />
    <path
       style="fill:none;fill-opacity:1;stroke:#ffffff;stroke-width:4.50001;stroke-linecap:round;stroke-linejoin:round;stroke-dasharray:none;stroke-opacity:1"
       d="m 67.324671,77.318177 c 8.030111,-0.05629 14.508313,0.30418 17.883117,-0.175324"
       id="path1452" />
    <path
       style="fill:none;fill-opacity:1;stroke:#ffffff;stroke-width:4.50001;stroke-linecap:round;stroke-linejoin:round;stroke-dasharray:none;stroke-opacity:1"
       d="m 35.557178,39.221372 c 2.852399,-0.102695 5.745865,-0.164324 8.762583,-0.1027"
       id="path1454" />
    <path
       style="fill:none;fill-opacity:1;stroke:#ffffff;stroke-width:4.50001;stroke-linecap:round;stroke-linejoin:round;stroke-dasharray:none;stroke-opacity:1"
       d="m 51.477991,39.212563 c 5.877098,0.290133 11.149384,0.05426 17.173007,0.05135"
       id="path1460" />
    <path
       style="fill:none;fill-opacity:1;stroke:#ffffff;stroke-width:4.50001;stroke-linecap:round;stroke-linejoin:round;stroke-dasharray:none;stroke-opacity:1"
       d="m 35.583846,49.991304 c 2.71194,0.07023 5.725908,-0.01056 8.762583,-0.1027"
       id="path1454-6" />
    <path
       style="fill:none;fill-opacity:1;stroke:#ffffff;stroke-width:4.50001;stroke-linecap:round;stroke-linejoin:round;stroke-dasharray:none;stroke-opacity:1"
       d="m 51.504659,49.982495 c 5.072465,-0.03376 6.629677,-0.217318 17.29698,0.05135"
       id="path1460-6" />
    <path
       style="fill:none;fill-opacity:1;stroke:#ffffff;stroke-width:4.50001;stroke-linecap:round;stroke-linejoin:round;stroke-dasharray:none;stroke-opacity:1"
       d="m 36.07974,61.024924 c 2.930948,-0.03423 7.067808,-0.130453 8.762583,-0.164687"
       id="path1454-5" />
    <path
       style="fill:none;fill-opacity:1;stroke:#ffffff;stroke-width:4.50001;stroke-linecap:round;stroke-linejoin:round;stroke-dasharray:none;stroke-opacity:1"
       d="m 51.938566,60.954128 c 7.132777,0.03778 11.708773,0.07556 16.863074,0.113337"
       id="path1460-0" />
  </g>
  <g
     id="layer2"
     style="display:none"
     transform="translate(-52.597306,-86.259851)">
    <path
       style="fill:none;fill-opacity:1;stroke:#ffffff;stroke-width:10;stroke-linecap:round;stroke-dasharray:none;stroke-opacity:1"
       d="m 122.84243,118.57964 c -12.03738,13.23587 -22.920027,23.26415 -38.922074,47.51299"
       id="path5227" />
    <path
       style="fill:none;fill-opacity:1;stroke:#ffffff;stroke-width:10;stroke-linecap:round;stroke-dasharray:none;stroke-opacity:1"
       d="m 86.725551,117.6304 c 17.087559,14.80477 31.112359,27.90802 39.798709,38.04545"
       id="path5229" />
  </g>
  <g
     id="layer7"
     style="display:none">
    <path
       style="fill:none;fill-opacity:1;stroke:#ffffff;stroke-width:4.50001;stroke-linecap:round;stroke-linejoin:round;stroke-dasharray:none;stroke-opacity:1"
       d="M 76.863421,57.275647 C 76.497955,48.241109 76.518393,37.662952 76.615474,26.778225 65.487342,24.660979 48.015406,25.155888 29.009742,26.282331 c -0.913926,17.4413 -0.706521,34.321933 0.247946,50.829036 7.915209,-0.288216 16.46889,-0.150785 25.78644,0.495893"
       id="path1965" />
    <path
       style="fill:none;fill-opacity:1;stroke:#ffffff;stroke-width:4.50001;stroke-linecap:round;stroke-linejoin:round;stroke-dasharray:none;stroke-opacity:1"
       d="m 76.367528,86.285389 c 0.362518,-3.794406 0.348605,-10.600268 0.247946,-18.100095"
       id="path1967" />
    <path
       style="fill:none;fill-opacity:1;stroke:#ffffff;stroke-width:4.50001;stroke-linecap:round;stroke-linejoin:round;stroke-dasharray:none;stroke-opacity:1"
       d="m 85.045657,76.760718 c -5.629335,-0.0068 8.413542,-0.518237 -17.356256,0.350649"
       id="path1969" />
    <path
       style="fill:none;fill-opacity:1;stroke:#ffffff;stroke-width:4.50001;stroke-linecap:round;stroke-linejoin:round;stroke-dasharray:none;stroke-opacity:1"
       d="m 40.149347,38.922076 c 9.661611,-0.583871 18.300325,-0.400569 26.64935,0"
       id="path1971" />
    <path
       style="fill:none;fill-opacity:1;stroke:#ffffff;stroke-width:4.50001;stroke-linecap:round;stroke-linejoin:round;stroke-dasharray:none;stroke-opacity:1"
       d="m 39.974023,51.545453 c 13.582729,0.01712 18,0.282181 27,0.423272"
       id="path1973" />
    <path
       style="fill:none;fill-opacity:1;stroke:#ffffff;stroke-width:4.50001;stroke-linecap:round;stroke-linejoin:round;stroke-dasharray:none;stroke-opacity:1"
       d="m 66.798699,64.694803 c -9.19394,-0.09464 -19.993304,-0.791321 -26.824675,-10e-7"
       id="path1975" />
  </g>
</svg>
